<svg width="272" height="21" viewBox="0 0 272 21" fill="none" xmlns="http://www.w3.org/2000/svg">
<path d="M254.533 15.496C255.472 15.816 256.496 16.072 257.605 16.264C258.736 16.4346 259.856 16.52 260.965 16.52C262.48 16.52 263.6 16.456 264.325 16.328C265.072 16.1786 265.562 15.9546 265.797 15.656C266.032 15.3573 266.149 14.9733 266.149 14.504C266.149 14.0986 266.064 13.7786 265.893 13.544C265.722 13.3093 265.392 13.128 264.901 13C264.41 12.8506 263.685 12.7333 262.725 12.648L260.613 12.456C259.034 12.3066 257.786 11.976 256.869 11.464C255.973 10.952 255.333 10.2693 254.949 9.41597C254.586 8.5413 254.405 7.49597 254.405 6.27997C254.405 4.8293 254.693 3.65597 255.269 2.75997C255.866 1.86397 256.826 1.2133 258.149 0.807968C259.472 0.381302 261.232 0.167969 263.429 0.167969C266.288 0.167969 268.645 0.541302 270.501 1.28797L270.405 5.63997L270.309 5.76797C268.197 5.0213 265.989 4.64797 263.685 4.64797C262.576 4.64797 261.722 4.71197 261.125 4.83997C260.528 4.94664 260.112 5.12797 259.877 5.38397C259.642 5.63997 259.525 6.00264 259.525 6.47197C259.525 6.9413 259.6 7.2933 259.749 7.52797C259.92 7.76264 260.25 7.94397 260.741 8.07197C261.232 8.17863 261.946 8.2853 262.885 8.39197L264.901 8.61597C266.608 8.80797 267.92 9.1493 268.837 9.63997C269.754 10.1306 270.384 10.792 270.725 11.624C271.088 12.4346 271.269 13.4266 271.269 14.6C271.269 16.0293 270.96 17.224 270.341 18.184C269.744 19.1226 268.762 19.8266 267.397 20.296C266.032 20.7653 264.208 21 261.925 21C260.432 21 259.088 20.9253 257.893 20.776C256.698 20.6053 255.536 20.3813 254.405 20.104V15.592L254.533 15.496Z" fill="black"/>
<path d="M241.924 20.7121V4.77605H236.164V0.456055H252.804V4.77605H247.044V20.7121H241.924Z" fill="black"/>
<path d="M218.17 20.7121V0.456055H233.21V4.61605H223.29V8.45605H231.898V12.6161H223.29V16.5521H233.21V20.7121H218.17Z" fill="black"/>
<path d="M199.201 4.80806L199.201 0.456056L213.921 0.456055L213.921 20.7121H208.801L208.801 4.80806L199.201 4.80806Z" fill="black"/>
<path d="M205.953 16.3602V20.7122H191.233V0.456198H196.353V16.3602H205.953Z" fill="black"/>
<path d="M200 8.00014H205V13.0001H200V8.00014Z" fill="black"/>
<path d="M186.394 0.456055V12.3921C186.394 14.4827 186.138 16.1574 185.626 17.4161C185.135 18.6747 184.271 19.5921 183.034 20.1681C181.796 20.7227 180.047 21.0001 177.786 21.0001C175.439 21.0001 173.615 20.7227 172.314 20.1681C171.034 19.5921 170.138 18.6747 169.626 17.4161C169.114 16.1574 168.858 14.4827 168.858 12.3921V0.456055H173.978V12.2961C173.978 13.3841 174.084 14.2374 174.298 14.8561C174.511 15.4747 174.895 15.9121 175.45 16.1681C176.004 16.4027 176.783 16.5201 177.786 16.5201C178.724 16.5201 179.439 16.4027 179.93 16.1681C180.442 15.9121 180.794 15.4747 180.986 14.8561C181.178 14.2374 181.274 13.3841 181.274 12.2961V0.456055H186.394Z" fill="black"/>
<path d="M165.978 15.5281C165.978 17.2347 165.445 18.5254 164.378 19.4001C163.333 20.2747 161.477 20.7121 158.81 20.7121H148.826V0.456055H150.074H158.49C160.261 0.456055 161.637 0.648055 162.618 1.03205C163.621 1.39472 164.325 1.93872 164.73 2.66405C165.136 3.38939 165.338 4.29605 165.338 5.38405C165.338 6.87739 164.976 8.04005 164.25 8.87206C163.546 9.68272 162.213 10.1734 160.25 10.3441V10.4401C161.701 10.5467 162.842 10.7921 163.674 11.1761C164.506 11.5387 165.093 12.0721 165.434 12.7761C165.797 13.4801 165.978 14.3974 165.978 15.5281ZM157.082 4.48805H153.946V8.45605H157.082C158.128 8.45605 158.885 8.32805 159.354 8.07205C159.824 7.79472 160.058 7.26139 160.058 6.47206C160.058 5.70406 159.824 5.18139 159.354 4.90405C158.885 4.62672 158.128 4.48805 157.082 4.48805ZM157.722 12.6481H153.946V16.7121H157.722C158.768 16.7121 159.525 16.5734 159.994 16.2961C160.464 15.9974 160.698 15.4534 160.698 14.6641C160.698 13.8534 160.464 13.3201 159.994 13.0641C159.525 12.7867 158.768 12.6481 157.722 12.6481Z" fill="black"/>
<path d="M131.224 14.728C131.224 14.024 131.256 13.384 131.32 12.808L131.256 12.712C130.658 12.7973 130.008 12.8613 129.304 12.904C128.6 12.9253 127.949 12.9253 127.352 12.904V8.74397L135.704 8.71197V19.592C134.722 20.04 133.602 20.392 132.344 20.648C131.106 20.8826 129.528 21 127.608 21C125.048 21 123.042 20.6586 121.592 19.976C120.141 19.272 119.117 18.152 118.52 16.616C117.922 15.0586 117.624 12.9893 117.624 10.408C117.624 8.3173 117.858 6.59997 118.328 5.25597C118.818 3.91197 119.522 2.8773 120.44 2.15197C121.378 1.4053 122.52 0.893302 123.864 0.615969C125.208 0.317302 126.744 0.167969 128.472 0.167969C129.496 0.167969 130.52 0.210636 131.544 0.295969C132.589 0.381303 133.624 0.541302 134.648 0.775969V4.99997L134.552 5.06397C133.656 4.85064 132.76 4.7013 131.864 4.61597C130.989 4.53064 130.104 4.48797 129.208 4.48797C127.906 4.48797 126.765 4.62664 125.784 4.90397C124.824 5.15997 124.077 5.70397 123.544 6.53597C123.01 7.36797 122.744 8.65864 122.744 10.408C122.744 12.136 122.882 13.4586 123.16 14.376C123.458 15.272 124.002 15.8906 124.792 16.232C125.602 16.552 126.754 16.712 128.248 16.712C128.44 16.712 128.738 16.712 129.144 16.712C129.549 16.6906 129.954 16.6693 130.36 16.648C130.765 16.6266 131.053 16.5946 131.224 16.552V14.728Z" fill="black"/>
<path d="M109.29 0.456055H114.41V20.7121H109.322L103.562 12.1361C103.114 11.4534 102.741 10.8774 102.442 10.4081C102.143 9.93872 101.866 9.46939 101.61 9.00006C101.354 8.53072 101.066 7.97605 100.746 7.33605L100.65 7.46406C100.949 8.48806 101.13 9.44805 101.194 10.3441C101.258 11.2187 101.29 12.0721 101.29 12.9041V20.7121H96.17V0.456055H101.258L107.018 9.03205C107.466 9.69339 107.839 10.2694 108.138 10.7601C108.437 11.2294 108.714 11.6987 108.97 12.1681C109.226 12.6374 109.514 13.1921 109.834 13.8321L109.93 13.7041C109.717 12.8081 109.557 11.9441 109.45 11.1121C109.343 10.2587 109.29 9.41605 109.29 8.58405V0.456055Z" fill="black"/>
<path d="M92.3213 20.7121H87.2013V0.456055H92.3213V20.7121Z" fill="black"/>
<path d="M79.1925 14.728C79.1925 14.024 79.2245 13.384 79.2885 12.808L79.2245 12.712C78.6272 12.7973 77.9765 12.8613 77.2725 12.904C76.5685 12.9253 75.9179 12.9253 75.3205 12.904V8.74397L83.6725 8.71197V19.592C82.6912 20.04 81.5712 20.392 80.3125 20.648C79.0752 20.8826 77.4965 21 75.5765 21C73.0165 21 71.0112 20.6586 69.5605 19.976C68.1099 19.272 67.0859 18.152 66.4885 16.616C65.8912 15.0586 65.5925 12.9893 65.5925 10.408C65.5925 8.3173 65.8272 6.59997 66.2965 5.25597C66.7872 3.91197 67.4912 2.8773 68.4085 2.15197C69.3472 1.4053 70.4885 0.893302 71.8325 0.615969C73.1765 0.317302 74.7125 0.167969 76.4405 0.167969C77.4645 0.167969 78.4885 0.210636 79.5125 0.295969C80.5579 0.381303 81.5925 0.541302 82.6165 0.775969V4.99997L82.5205 5.06397C81.6245 4.85064 80.7285 4.7013 79.8325 4.61597C78.9579 4.53064 78.0725 4.48797 77.1765 4.48797C75.8752 4.48797 74.7339 4.62664 73.7525 4.90397C72.7925 5.15997 72.0459 5.70397 71.5125 6.53597C70.9792 7.36797 70.7125 8.65864 70.7125 10.408C70.7125 12.136 70.8512 13.4586 71.1285 14.376C71.4272 15.272 71.9712 15.8906 72.7605 16.232C73.5712 16.552 74.7232 16.712 76.2165 16.712C76.4085 16.712 76.7072 16.712 77.1125 16.712C77.5179 16.6906 77.9232 16.6693 78.3285 16.648C78.7339 16.6266 79.0219 16.5946 79.1925 16.552V14.728Z" fill="black"/>
<path d="M44.795 20.7121V0.456055H53.659C55.4297 0.456055 56.9124 0.605388 58.107 0.904055C59.3017 1.18139 60.2617 1.68272 60.987 2.40805C61.7124 3.13339 62.235 4.14672 62.555 5.44805C62.875 6.72805 63.035 8.38139 63.035 10.4081C63.035 12.5201 62.875 14.2481 62.555 15.5921C62.235 16.9361 61.7124 17.9814 60.987 18.7281C60.2617 19.4747 59.3017 19.9974 58.107 20.2961C56.9124 20.5734 55.4297 20.7121 53.659 20.7121H44.795ZM52.923 4.77605H49.915V16.3921H52.923C54.1604 16.3921 55.131 16.2534 55.835 15.9761C56.5604 15.6987 57.0724 15.1334 57.371 14.2801C57.691 13.4267 57.851 12.1361 57.851 10.4081C57.851 8.76539 57.691 7.54939 57.371 6.76005C57.0724 5.94939 56.5604 5.41606 55.835 5.16006C55.131 4.90406 54.1604 4.77605 52.923 4.77605Z" fill="black"/>
<path d="M21.7175 10.568C21.7175 7.98664 22.0055 5.93864 22.5815 4.42397C23.1789 2.9093 24.1922 1.8213 25.6215 1.15997C27.0722 0.498636 29.0882 0.167969 31.6695 0.167969C33.6109 0.167969 35.2215 0.349302 36.5015 0.711969C37.7815 1.07464 38.7949 1.6613 39.5415 2.47197C40.2882 3.28264 40.8109 4.35997 41.1095 5.70397C41.4295 7.02663 41.5895 8.64797 41.5895 10.568C41.5895 12.5093 41.4295 14.152 41.1095 15.496C40.8109 16.8186 40.2882 17.8853 39.5415 18.696C38.7949 19.5066 37.7815 20.0933 36.5015 20.456C35.2215 20.8186 33.6109 21 31.6695 21C29.7282 21 28.1175 20.8186 26.8375 20.456C25.5575 20.0933 24.5442 19.5066 23.7975 18.696C23.0509 17.8853 22.5175 16.8186 22.1975 15.496C21.8775 14.152 21.7175 12.5093 21.7175 10.568ZM31.6695 16.52C33.0349 16.52 34.0589 16.3493 34.7415 16.008C35.4242 15.6666 35.8829 15.0693 36.1175 14.216C36.3522 13.3413 36.4695 12.1253 36.4695 10.568C36.4695 9.03197 36.3522 7.8373 36.1175 6.98397C35.8829 6.13064 35.4242 5.5333 34.7415 5.19197C34.0589 4.8293 33.0349 4.64797 31.6695 4.64797C30.3255 4.64797 29.3015 4.8293 28.5975 5.19197C27.9149 5.5333 27.4455 6.13064 27.1895 6.98397C26.9549 7.8373 26.8375 9.03197 26.8375 10.568C26.8375 12.1253 26.9549 13.3413 27.1895 14.216C27.4455 15.0693 27.9149 15.6666 28.5975 16.008C29.3015 16.3493 30.3255 16.52 31.6695 16.52Z" fill="black"/>
<path d="M0.920044 20.7121V0.456055H9.78404C11.5547 0.456055 13.0374 0.605388 14.232 0.904055C15.4267 1.18139 16.3867 1.68272 17.112 2.40805C17.8374 3.13339 18.36 4.14672 18.68 5.44805C19 6.72805 19.16 8.38139 19.16 10.4081C19.16 12.5201 19 14.2481 18.68 15.5921C18.36 16.9361 17.8374 17.9814 17.112 18.7281C16.3867 19.4747 15.4267 19.9974 14.232 20.2961C13.0374 20.5734 11.5547 20.7121 9.78404 20.7121H0.920044ZM9.04804 4.77605H6.04004V16.3921H9.04804C10.2854 16.3921 11.256 16.2534 11.96 15.9761C12.6854 15.6987 13.1974 15.1334 13.496 14.2801C13.816 13.4267 13.976 12.1361 13.976 10.4081C13.976 8.76539 13.816 7.54939 13.496 6.76005C13.1974 5.94939 12.6854 5.41606 11.96 5.16006C11.256 4.90406 10.2854 4.77605 9.04804 4.77605Z" fill="black"/>
</svg>
